<svg width="520" height="360" viewBox="0 0 520 360" fill="none" xmlns="http://www.w3.org/2000/svg">
  <rect width="520" height="360" rx="32" fill="url(#bg)"/>
  <circle cx="356" cy="160" r="112" fill="url(#orb)" opacity="0.95"/>
  <circle cx="356" cy="160" r="152" stroke="url(#ring1)" stroke-width="2" opacity="0.5"/>
  <circle cx="356" cy="160" r="184" stroke="url(#ring2)" stroke-width="2" opacity="0.25"/>
  <path d="M58 118C98.1105 82.1347 140.71 77.5302 185.813 104.186C230.917 130.841 275.313 133.473 319 112.083" stroke="#6CE7C7" stroke-width="10" stroke-linecap="round"/>
  <path d="M58 170C110.998 145.477 158.83 147.003 201.494 174.579C244.157 202.154 283.326 208.794 319 194.5" stroke="#F4FAFF" stroke-width="10" stroke-linecap="round" opacity="0.88"/>
  <path d="M58 222C101.457 251.597 148.954 258.711 200.491 243.341C252.028 227.97 291.531 226.357 319 238.5" stroke="#FF9A4A" stroke-width="10" stroke-linecap="round" opacity="0.92"/>
  <rect x="62" y="72" width="112" height="30" rx="15" fill="rgba(237,246,255,0.12)"/>
  <rect x="62" y="258" width="152" height="24" rx="12" fill="rgba(237,246,255,0.08)"/>
  <defs>
    <linearGradient id="bg" x1="12" y1="0" x2="510" y2="360" gradientUnits="userSpaceOnUse">
      <stop stop-color="#10233B"/>
      <stop offset="0.48" stop-color="#122B41"/>
      <stop offset="1" stop-color="#0A1827"/>
    </linearGradient>
    <radialGradient id="orb" cx="0" cy="0" r="1" gradientUnits="userSpaceOnUse" gradientTransform="translate(356 160) rotate(90) scale(112)">
      <stop stop-color="#E9FFF6"/>
      <stop offset="0.38" stop-color="#6CE7C7"/>
      <stop offset="1" stop-color="#1A3C56"/>
    </radialGradient>
    <linearGradient id="ring1" x1="204" y1="160" x2="508" y2="160" gradientUnits="userSpaceOnUse">
      <stop stop-color="#6CE7C7"/>
      <stop offset="1" stop-color="#FF9A4A"/>
    </linearGradient>
    <linearGradient id="ring2" x1="172" y1="160" x2="540" y2="160" gradientUnits="userSpaceOnUse">
      <stop stop-color="#F4FAFF"/>
      <stop offset="1" stop-color="#6CE7C7"/>
    </linearGradient>
  </defs>
</svg>
